<svg xmlns="http://www.w3.org/2000/svg" viewBox="0 0 256 160" fill="none">
  <defs>
    <linearGradient id="dragonBody" x1="32" y1="40" x2="212" y2="120" gradientUnits="userSpaceOnUse">
      <stop stop-color="#FFE8A3"/>
      <stop offset="0.42" stop-color="#FF8E45"/>
      <stop offset="1" stop-color="#A11F18"/>
    </linearGradient>
    <linearGradient id="dragonFlame" x1="116" y1="82" x2="244" y2="82" gradientUnits="userSpaceOnUse">
      <stop stop-color="#FFF4B8"/>
      <stop offset="0.42" stop-color="#FFAF52"/>
      <stop offset="1" stop-color="#D84022"/>
    </linearGradient>
  </defs>
  <path d="M39 109c18-30 42-48 72-55 12-3 29-3 45 4 11 5 20 11 27 18 14 0 24 2 29 8-7 3-14 5-21 5 3 5 4 11 2 18-14-8-26-16-36-24-11 10-22 18-34 24-20 9-47 15-84 18Z" fill="url(#dragonBody)"/>
  <path d="M43 107c8-6 13-13 15-22 8 6 17 9 28 9-8 4-15 10-21 18l-22-5Z" fill="#6D1B16" opacity=".48"/>
  <path d="M181 75c15-9 29-13 43-11-6 7-10 15-12 24 11 0 21 3 31 8-15 4-28 6-40 5-7 0-15-1-22-4l13-22Z" fill="url(#dragonFlame)"/>
  <path d="M72 69c4-14 16-25 37-32-6 11-6 22 1 34-14-3-27-4-38-2Z" fill="#FFC16F" opacity=".82"/>
  <circle cx="119" cy="56" r="5" fill="#4D120E"/>
  <path d="m129 51 10-10 9 2-7 10-12-2Z" fill="#FFD36A"/>
</svg>
