<svg xmlns="http://www.w3.org/2000/svg" viewBox="0 0 180 140">
  <defs>
    <linearGradient id="windWing" x1="0" x2="1">
      <stop offset="0" stop-color="#E8F8FF"/>
      <stop offset="0.5" stop-color="#7AC8FF"/>
      <stop offset="1" stop-color="#1B4F8A"/>
    </linearGradient>
  </defs>
  <path d="M91 38 C68 22 35 18 9 46 C42 49 60 64 74 86 Z" fill="url(#windWing)" stroke="#D8F0FF" stroke-width="4"/>
  <path d="M89 38 C112 22 145 18 171 46 C138 49 120 64 106 86 Z" fill="url(#windWing)" stroke="#D8F0FF" stroke-width="4"/>
  <path d="M90 24 C108 48 110 78 90 114 C70 78 72 48 90 24 Z" fill="#1F3F66" stroke="#A8E2FF" stroke-width="5"/>
  <path d="M90 40 C100 60 100 78 90 100 C80 78 80 60 90 40 Z" fill="#7AC8FF"/>
  <path d="M81 102 L90 132 L99 102" fill="#A8DCFF" stroke="#264F86" stroke-width="4"/>
  <circle cx="86" cy="60" r="3" fill="#0F3F66"/>
  <circle cx="94" cy="60" r="3" fill="#0F3F66"/>
</svg>
