<svg xmlns="http://www.w3.org/2000/svg" width="160" height="160" viewBox="0 0 160 160">
  <defs>
    <linearGradient id="runnerBody" x1="0" y1="0" x2="1" y2="1">
      <stop offset="0" stop-color="#817064"/>
      <stop offset="0.5" stop-color="#42312c"/>
      <stop offset="1" stop-color="#1d1518"/>
    </linearGradient>
    <linearGradient id="runnerFlare" x1="0" y1="0" x2="1" y2="0">
      <stop offset="0" stop-color="#ffe59b"/>
      <stop offset="0.5" stop-color="#ff9c3a"/>
      <stop offset="1" stop-color="#d63818"/>
    </linearGradient>
  </defs>
  <g fill="none" fill-rule="evenodd">
    <path d="M42 135 L66 112 L88 121 L108 136" stroke="#261b1f" stroke-width="11" stroke-linecap="round"/>
    <path d="M42 87 C42 61 60 45 89 45 C108 45 122 57 122 75 C122 92 109 104 91 108 L99 123 L76 112 C57 108 42 100 42 87 Z" fill="url(#runnerBody)" stroke="#8a776a" stroke-width="4"/>
    <path d="M91 55 L131 37 L113 67 Z" fill="#251c20" stroke="#9e8860" stroke-width="3"/>
    <path d="M88 61 L118 52" stroke="url(#runnerFlare)" stroke-width="5" stroke-linecap="round"/>
    <path d="M64 83 L29 97" stroke="#473239" stroke-width="9" stroke-linecap="round"/>
    <path d="M59 71 L48 45" stroke="#473239" stroke-width="8" stroke-linecap="round"/>
    <circle cx="74" cy="68" r="5" fill="#fff5d3"/>
    <circle cx="97" cy="66" r="4.5" fill="#fff5d3"/>
    <circle cx="74" cy="69" r="2.2" fill="#2b1719"/>
    <circle cx="97" cy="67" r="2.1" fill="#2b1719"/>
    <path d="M77 86 C83 89 90 88 98 83" stroke="#2b1719" stroke-width="4" stroke-linecap="round"/>
    <path d="M26 94 C16 89 12 82 14 74" stroke="url(#runnerFlare)" stroke-width="4" stroke-linecap="round"/>
    <path d="M20 102 C10 100 4 95 4 87" stroke="#ff7b30" stroke-width="3" stroke-linecap="round" opacity="0.8"/>
  </g>
</svg>
