<svg xmlns="http://www.w3.org/2000/svg" viewBox="0 0 88 132">
  <defs>
    <filter id="soft" x="-20%" y="-20%" width="140%" height="140%">
      <feDropShadow dx="0" dy="4" stdDeviation="2" flood-color="#31402b" flood-opacity=".35"/>
    </filter>
  </defs>
  <g filter="url(#soft)" stroke-linecap="round" stroke-linejoin="round">
    <path d="M25 26 44 4l20 22z" fill="#e98e2b" stroke="#8d4e1d" stroke-width="4"/>
    <path d="M31 17h27" stroke="#ffd06a" stroke-width="3"/>
    <path d="M28 65 13 82M62 66l14 18" fill="none" stroke="#a8bb9b" stroke-width="8"/>
    <rect x="27" y="56" width="36" height="58" rx="8" fill="#6b7f96" stroke="#34465a" stroke-width="4"/>
    <path d="M28 73h35M29 91h31" stroke="#4d6280" stroke-width="3"/>
    <circle cx="45" cy="38" r="22" fill="#9bbd86" stroke="#4c6b41" stroke-width="4"/>
    <circle cx="37" cy="37" r="4" fill="#26331f"/>
    <circle cx="54" cy="36" r="4" fill="#26331f"/>
    <path d="M36 50c6 3 15 2 20-2" fill="none" stroke="#26331f" stroke-width="3"/>
    <path d="M34 114l-10 16M57 114l9 16" fill="none" stroke="#6c7a74" stroke-width="8"/>
    <path d="M18 130h17M54 130h18" stroke="#3d4b48" stroke-width="4"/>
  </g>
</svg>
