<svg xmlns="http://www.w3.org/2000/svg" viewBox="0 0 112 96">
  <defs>
    <filter id="soft" x="-20%" y="-20%" width="140%" height="140%">
      <feDropShadow dx="0" dy="4" stdDeviation="2" flood-color="#2f5724" flood-opacity=".35"/>
    </filter>
  </defs>
  <g filter="url(#soft)" stroke-linecap="round" stroke-linejoin="round">
    <path d="M43 54c-13 6-21 15-23 29 15 0 26-5 34-18z" fill="#65b64f" stroke="#3d8037" stroke-width="3"/>
    <path d="M51 54c14 5 22 14 25 28-16 1-28-4-37-17z" fill="#79c963" stroke="#3d8037" stroke-width="3"/>
    <path d="M48 52v34" fill="none" stroke="#3f8d3a" stroke-width="8"/>
    <circle cx="42" cy="39" r="26" fill="#71c85b" stroke="#367b34" stroke-width="4"/>
    <ellipse cx="76" cy="39" rx="27" ry="15" fill="#72c95d" stroke="#367b34" stroke-width="4"/>
    <ellipse cx="94" cy="39" rx="10" ry="11" fill="#8cda72" stroke="#367b34" stroke-width="3"/>
    <circle cx="34" cy="32" r="4" fill="#1f421d"/>
    <path d="M31 48c5 4 12 4 17 0" fill="none" stroke="#245020" stroke-width="3"/>
    <path d="M82 36h16" stroke="#d8ffc7" stroke-width="3" opacity=".5"/>
  </g>
</svg>
