<svg xmlns="http://www.w3.org/2000/svg" viewBox="0 0 96 96">
  <defs>
    <filter id="soft" x="-20%" y="-20%" width="140%" height="140%">
      <feDropShadow dx="0" dy="4" stdDeviation="2" flood-color="#4d3a1c" flood-opacity=".28"/>
    </filter>
  </defs>
  <g filter="url(#soft)" stroke-linecap="round" stroke-linejoin="round">
    <path d="M47 62c-13 5-19 15-19 24 13-1 23-5 30-17z" fill="#5fa949" stroke="#356d31" stroke-width="3"/>
    <path d="M49 61c13 5 19 15 19 24-13-1-23-5-30-17z" fill="#72bf55" stroke="#356d31" stroke-width="3"/>
    <path d="M48 49v38" fill="none" stroke="#3f8d3a" stroke-width="8"/>
    <g fill="#ffd85a" stroke="#b68125" stroke-width="3">
      <ellipse cx="48" cy="16" rx="10" ry="16"/>
      <ellipse cx="48" cy="64" rx="10" ry="16"/>
      <ellipse cx="16" cy="40" rx="16" ry="10"/>
      <ellipse cx="80" cy="40" rx="16" ry="10"/>
      <ellipse cx="25" cy="18" rx="10" ry="15" transform="rotate(-42 25 18)"/>
      <ellipse cx="71" cy="18" rx="10" ry="15" transform="rotate(42 71 18)"/>
      <ellipse cx="25" cy="62" rx="10" ry="15" transform="rotate(42 25 62)"/>
      <ellipse cx="71" cy="62" rx="10" ry="15" transform="rotate(-42 71 62)"/>
    </g>
    <circle cx="48" cy="40" r="24" fill="#8b5a2b" stroke="#4d2f16" stroke-width="4"/>
    <circle cx="39" cy="36" r="3" fill="#2f1b10"/>
    <circle cx="57" cy="36" r="3" fill="#2f1b10"/>
    <path d="M38 48c5 6 15 6 20 0" fill="none" stroke="#2f1b10" stroke-width="3"/>
    <circle cx="35" cy="44" r="4" fill="#d78358" opacity=".55"/>
    <circle cx="61" cy="44" r="4" fill="#d78358" opacity=".55"/>
  </g>
</svg>
