<svg xmlns="http://www.w3.org/2000/svg" viewBox="0 0 96 104">
  <defs>
    <filter id="soft" x="-20%" y="-20%" width="140%" height="140%">
      <feDropShadow dx="0" dy="4" stdDeviation="2" flood-color="#5c3918" flood-opacity=".32"/>
    </filter>
  </defs>
  <g filter="url(#soft)" stroke-linecap="round" stroke-linejoin="round">
    <path d="M48 12c22 0 35 18 35 43 0 24-13 39-35 39S13 79 13 55c0-25 13-43 35-43z" fill="#b87a39" stroke="#6d431d" stroke-width="5"/>
    <path d="M30 24c-8 12-9 37-2 54M64 23c8 13 9 38 1 55" fill="none" stroke="#8d5a2b" stroke-width="4" opacity=".65"/>
    <circle cx="38" cy="48" r="4" fill="#362012"/>
    <circle cx="58" cy="48" r="4" fill="#362012"/>
    <path d="M37 63c6 4 16 4 22 0" fill="none" stroke="#362012" stroke-width="4"/>
    <path d="M24 82c10 8 38 8 48 0" fill="none" stroke="#d69a55" stroke-width="4" opacity=".6"/>
  </g>
</svg>
